<?xml version="1.0" encoding="utf-8"?>
<svg xmlns="http://www.w3.org/2000/svg"
	xmlns:xlink="http://www.w3.org/1999/xlink"
	width="186px" height="78px" viewBox="0 0 186 78">
<filter filterUnits="objectBoundingBox" x="-1.09" y="-2.67" width="102.17" height="106.67" id="filter0">
<feGaussianBlur in="SourceAlpha" stdDeviation="1.00" result="dsBlurOut1"/>
<feFlood flood-color="rgb(0,0,0)" flood-opacity="0.10" result="dsFloodOut1"/>
<feComposite in="dsFloodOut1" in2="dsBlurOut1" operator="in" result="dsShadow1"/>
<feOffset in="dsShadow1" dx="1.00" dy="1.73" result="dsOffset1"/>
<feComposite in="dsOffset1" in2="SourceAlpha" operator="out" result="dropShadow1"/>
<feBlend in="dropShadow1" in2="SourceGraphic" mode="normal" result="sourceGraphic"/>
<feGaussianBlur in="SourceAlpha" stdDeviation="0.50" result="ibBlurOut"/>
<feDiffuseLighting in="ibBlurOut" surfaceScale="0.25" result="ibBump1">
    <feDistantLight azimuth="-120.00" elevation="30.00"/>
</feDiffuseLighting>
<feComposite in="ibBump1" in2="SourceAlpha" operator="in" result="ibDiff"/>
<feColorMatrix in="ibDiff" type="luminanceToAlpha" result="ibBumpMap"/>
<feComponentTransfer in="ibBumpMap" result="ibHighlightMask2">
    <feFuncA type="linear" slope="1.00" intercept="-0.50"/>
</feComponentTransfer>
<feComponentTransfer in="ibHighlightMask2" result="ibHighlighMask">
    <feFuncA type="linear" slope="2.00"/>
</feComponentTransfer>
<feFlood flood-color="rgb(255,255,255)" result="ibHighlightFlood"/>
<feComposite in="ibHighlightFlood" in2="ibHighlighMask" operator="in" result="ibHighlight"/>
<feComponentTransfer in="ibHighlight" result="ibHighlightOpacity">
    <feFuncA type="linear" slope="0.75"/>
</feComponentTransfer>
<feComponentTransfer in="ibBumpMap" result="ibShadowMask1">
    <feFuncA type="linear" slope="-1.00" intercept="1.00"/>
</feComponentTransfer>
<feComponentTransfer in="ibShadowMask1" result="ibShadowMask2">
    <feFuncA type="linear" slope="1.00" intercept="-0.50"/>
</feComponentTransfer>
<feComponentTransfer in="ibShadowMask2" result="ibShadowMask3">
    <feFuncA type="linear" slope="2.00"/>
</feComponentTransfer>
<feComposite in="ibShadowMask3" in2="SourceAlpha" operator="in" result="ibShadowMask"/>
<feFlood flood-color="rgb(0,0,0)" result="ibShadowFlood"/>
<feComposite in="ibShadowFlood" in2="ibShadowMask" operator="in" result="ibShadow"/>
<feComponentTransfer in="ibShadow" result="ibShadowOpacity">
    <feFuncA type="linear" slope="0.19"/>
</feComponentTransfer>
<feBlend in="sourceGraphic" in2="ibShadowOpacity" mode="multiply" result="ibShadowBlend"/>
<feBlend in="ibShadowBlend" in2="ibHighlightOpacity" mode="screen" result="innerBlend"/>
</filter>
<path fillRule="evenodd" d="M 181.54 58.78C 179.8 60.88 177.49 62.08 174.61 62.37 174.61 62.37 174.61 66.93 174.61 66.93 174.61 66.93 174.61 73.05 174.61 73.05 174.61 73.44 174.48 73.77 174.23 74.04 173.97 74.31 173.66 74.45 173.29 74.45 172.93 74.45 172.62 74.31 172.36 74.04 172.1 73.77 171.98 73.44 171.98 73.05 171.98 73.05 171.98 66.93 171.98 66.93 171.98 66.93 171.98 62.68 171.98 62.68 171.98 62.68 171.94 62.68 171.94 62.68 171.94 62.68 171.94 62.37 171.94 62.37 169.05 62.06 166.74 60.86 165.02 58.76 163.29 56.65 162.43 54.06 162.43 50.96 162.43 50.96 162.43 47.71 162.43 47.71 162.43 47.71 162.43 44.5 162.43 44.5 162.43 44.11 162.57 43.79 162.84 43.53 163.12 43.27 163.43 43.14 163.78 43.14 164.16 43.14 164.48 43.28 164.74 43.55 165 43.82 165.14 44.15 165.14 44.54 165.14 44.54 165.14 50.96 165.14 50.96 165.14 53.56 165.88 55.66 167.38 57.26 168.88 58.86 170.87 59.66 173.35 59.66 175.8 59.66 177.78 58.86 179.28 57.27 180.77 55.67 181.52 53.58 181.52 50.98 181.52 50.98 181.52 44.53 181.52 44.53 181.52 44.15 181.66 43.82 181.92 43.55 182.19 43.28 182.5 43.14 182.84 43.14 183.2 43.14 183.52 43.28 183.77 43.55 184.03 43.82 184.16 44.15 184.16 44.54 184.16 44.54 184.16 50.98 184.16 50.98 184.16 54.07 183.28 56.67 181.54 58.78ZM 173.65 58.71C 173.65 58.71 173.13 58.71 173.13 58.71 169.2 58.71 166.02 55.22 166.02 50.91 166.02 50.91 166.02 47.21 166.02 47.21 166.02 47.21 180.76 47.21 180.76 47.21 180.76 47.21 180.76 50.91 180.76 50.91 180.76 55.22 177.57 58.71 173.65 58.71ZM 166.02 45.44C 166.02 45.44 180.76 45.44 180.76 45.44 180.76 45.44 180.76 46.48 180.76 46.48 180.76 46.48 166.02 46.48 166.02 46.48 166.02 46.48 166.02 45.44 166.02 45.44ZM 166.02 35.09C 163.28 35.17 156.62 35.18 147.2 34.06 141 34.05 134.08 33.67 127.3 32.51 109.59 32.58 94.37 28.89 72.16 24.69 42.1 19.01 25.82 31.37 24.65 32.3 44.78 15.75 71.44 23.64 104.57 29.41 109.35 30.24 114.08 30.74 118.67 30.98 109.59 29.46 99.5 26.87 88.55 22.67 57.48 10.75 39.33 13.36 20.88 24.72 20.88 24.72 41.48 5.64 80.88 18.74 86.42 20.73 97.2 26.55 116.67 29.9 112.03 28.36 107.71 26.28 104.02 23.51 99.46 21.82 94.77 19.88 89.97 17.66 51.73-0.03 26.85 15.11 24.87 15.46 24.87 15.46 49.77-0.71 88.52 15.77 92.81 17.6 96.73 19.23 100.33 20.69 74.49 1.36 52.82-4.8 26.82 6.67 26.82 6.67 47.11-6.21 73.96 4.12 87.88 9.48 95.47 16.39 103.95 22.14 115.72 26.79 124.03 29.45 131.81 31.04 148.66 30.32 162.03 26.83 166.67 25.47 167.79 22.67 170.26 20.72 173.13 20.72 173.13 20.72 173.65 20.72 173.65 20.72 177.57 20.72 180.76 24.36 180.76 28.86 180.76 28.86 180.76 44.71 180.76 44.71 180.76 44.71 166.02 44.71 166.02 44.71 166.02 44.71 166.02 35.09 166.02 35.09ZM 166.91 43.89C 166.91 43.89 179.87 43.89 179.87 43.89 179.87 43.89 179.87 28.96 179.87 28.96 179.87 24.91 176.99 21.62 173.45 21.62 173.45 21.62 173.32 21.62 173.32 21.62 169.78 21.62 166.91 24.91 166.91 28.96 166.91 28.96 166.91 43.89 166.91 43.89ZM 166.02 33.85C 166.02 33.85 166.02 33.22 166.02 33.22 164.49 33.33 162.42 33.49 159.9 33.65 161.83 33.72 163.87 33.78 166.02 33.85ZM 149.94 33.22C 159.23 32.92 163.78 32.04 166.02 31.59 166.02 31.59 166.02 30.28 166.02 30.28 161.72 31.11 154.3 32.53 144.2 32.81 146.05 32.97 147.95 33.1 149.94 33.22ZM 108.87 25.24C 112.66 27.42 116.84 29.31 121.94 30.72 123.12 30.88 124.33 31.03 125.56 31.17 126.99 31.17 128.41 31.15 129.81 31.11 123.38 29.7 116.34 27.79 108.87 25.24ZM 130.58 32.45C 130.56 32.45 130.55 32.45 130.53 32.45 133.81 32.91 137.43 33.19 141.46 33.28 140.55 33.15 139.63 33 138.69 32.84 136.12 32.8 133.41 32.68 130.58 32.45ZM 150.7 30.35C 146.07 31.15 141.74 31.7 137.61 32.05 137.91 32.09 138.22 32.14 138.52 32.18 152.28 32.71 162.16 30.17 166.02 28.96 166.02 28.96 166.02 28.86 166.02 28.86 166.02 28.4 166.06 27.95 166.12 27.5 164.71 27.89 161.24 28.54 150.7 30.35ZM 171.52 23.78C 171.52 23.37 171.3 23.03 171 22.9 171.71 22.52 172.5 22.31 173.33 22.31 173.33 22.31 173.45 22.31 173.45 22.31 174.33 22.31 175.17 22.55 175.91 22.97 175.68 23.14 175.52 23.43 175.52 23.78 175.52 24.3 175.89 24.72 176.34 24.72 176.75 24.72 177.09 24.37 177.15 23.92 178.22 24.99 178.97 26.52 179.17 28.26 178.74 28.29 178.41 28.7 178.41 29.2 178.41 29.72 178.78 30.14 179.23 30.14 179.23 30.14 179.23 33.67 179.23 33.67 178.78 33.67 178.41 34.09 178.41 34.62 178.41 35.14 178.78 35.56 179.23 35.56 179.23 35.56 179.23 39.28 179.23 39.28 179.19 39.27 179.14 39.26 179.09 39.26 178.64 39.26 178.27 39.68 178.27 40.2 178.27 40.72 178.64 41.15 179.09 41.15 179.14 41.15 179.19 41.14 179.23 41.13 179.23 41.13 179.23 43.33 179.23 43.33 179.23 43.33 178.35 43.33 178.35 43.33 178.43 43.19 178.47 43.02 178.47 42.84 178.47 42.32 178.1 41.89 177.65 41.89 177.2 41.89 176.83 42.32 176.83 42.84 176.83 43.02 176.87 43.19 176.95 43.33 176.95 43.33 175.58 43.33 175.58 43.33 175.66 43.19 175.7 43.02 175.7 42.84 175.7 42.32 175.33 41.89 174.88 41.89 174.42 41.89 174.06 42.32 174.06 42.84 174.06 43.02 174.1 43.19 174.18 43.33 174.18 43.33 172.71 43.33 172.71 43.33 172.78 43.19 172.83 43.02 172.83 42.84 172.83 42.32 172.46 41.89 172.01 41.89 171.55 41.89 171.18 42.32 171.18 42.84 171.18 43.02 171.23 43.19 171.31 43.33 171.31 43.33 169.75 43.33 169.75 43.33 169.83 43.19 169.88 43.02 169.88 42.84 169.88 42.32 169.51 41.89 169.05 41.89 168.6 41.89 168.23 42.32 168.23 42.84 168.23 43.02 168.28 43.19 168.36 43.33 168.36 43.33 167.54 43.33 167.54 43.33 167.54 43.33 167.54 41.13 167.54 41.13 167.6 41.14 167.65 41.15 167.71 41.15 168.16 41.15 168.53 40.72 168.53 40.2 168.53 39.68 168.16 39.26 167.71 39.26 167.65 39.26 167.6 39.27 167.54 39.28 167.54 39.28 167.54 35.54 167.54 35.54 167.6 35.55 167.65 35.56 167.71 35.56 168.16 35.56 168.53 35.14 168.53 34.62 168.53 34.09 168.16 33.67 167.71 33.67 167.65 33.67 167.6 33.68 167.54 33.69 167.54 33.69 167.54 30.12 167.54 30.12 167.6 30.13 167.65 30.14 167.71 30.14 168.16 30.14 168.53 29.72 168.53 29.2 168.53 28.67 168.16 28.25 167.71 28.25 167.67 28.25 167.64 28.26 167.6 28.26 167.82 26.39 168.67 24.75 169.89 23.67 169.88 23.71 169.88 23.74 169.88 23.78 169.88 24.3 170.24 24.72 170.7 24.72 171.15 24.72 171.52 24.3 171.52 23.78ZM 172.04 25.67C 171.59 25.67 171.22 26.09 171.22 26.61 171.22 27.13 171.59 27.55 172.04 27.55 172.5 27.55 172.87 27.13 172.87 26.61 172.87 26.09 172.5 25.67 172.04 25.67ZM 172.04 32.82C 172.5 32.82 172.87 32.4 172.87 31.88 172.87 31.36 172.5 30.93 172.04 30.93 171.59 30.93 171.22 31.36 171.22 31.88 171.22 32.4 171.59 32.82 172.04 32.82ZM 170.66 33.67C 170.21 33.67 169.84 34.09 169.84 34.62 169.84 35.14 170.21 35.56 170.66 35.56 171.12 35.56 171.49 35.14 171.49 34.62 171.49 34.09 171.12 33.67 170.66 33.67ZM 175.74 31.88C 175.74 31.36 175.37 30.93 174.91 30.93 174.46 30.93 174.09 31.36 174.09 31.88 174.09 32.4 174.46 32.82 174.91 32.82 175.37 32.82 175.74 32.4 175.74 31.88ZM 175.48 34.62C 175.48 35.14 175.85 35.56 176.31 35.56 176.76 35.56 177.13 35.14 177.13 34.62 177.13 34.09 176.76 33.67 176.31 33.67 175.85 33.67 175.48 34.09 175.48 34.62ZM 174.36 29.2C 174.36 28.67 173.99 28.25 173.54 28.25 173.08 28.25 172.71 28.67 172.71 29.2 172.71 29.72 173.08 30.14 173.54 30.14 173.99 30.14 174.36 29.72 174.36 29.2ZM 173.54 33.67C 173.08 33.67 172.71 34.09 172.71 34.62 172.71 35.14 173.08 35.56 173.54 35.56 173.99 35.56 174.36 35.14 174.36 34.62 174.36 34.09 173.99 33.67 173.54 33.67ZM 173.57 22.83C 173.12 22.83 172.75 23.25 172.75 23.78 172.75 24.3 173.12 24.72 173.57 24.72 174.03 24.72 174.39 24.3 174.39 23.78 174.39 23.25 174.03 22.83 173.57 22.83ZM 174.91 25.67C 174.46 25.67 174.09 26.09 174.09 26.61 174.09 27.13 174.46 27.55 174.91 27.55 175.37 27.55 175.74 27.13 175.74 26.61 175.74 26.09 175.37 25.67 174.91 25.67ZM 176.31 28.25C 175.85 28.25 175.48 28.67 175.48 29.2 175.48 29.72 175.85 30.14 176.31 30.14 176.76 30.14 177.13 29.72 177.13 29.2 177.13 28.67 176.76 28.25 176.31 28.25ZM 178.51 26.61C 178.51 26.09 178.14 25.67 177.69 25.67 177.23 25.67 176.86 26.09 176.86 26.61 176.86 27.13 177.23 27.55 177.69 27.55 178.14 27.55 178.51 27.13 178.51 26.61ZM 178.51 31.88C 178.51 31.36 178.14 30.93 177.69 30.93 177.23 30.93 176.86 31.36 176.86 31.88 176.86 32.4 177.23 32.82 177.69 32.82 178.14 32.82 178.51 32.4 178.51 31.88ZM 177.69 38.42C 178.14 38.42 178.51 38 178.51 37.48 178.51 36.95 178.14 36.53 177.69 36.53 177.23 36.53 176.86 36.95 176.86 37.48 176.86 38 177.23 38.42 177.69 38.42ZM 176.31 41.15C 176.76 41.15 177.13 40.72 177.13 40.2 177.13 39.68 176.76 39.26 176.31 39.26 175.85 39.26 175.48 39.68 175.48 40.2 175.48 40.72 175.85 41.15 176.31 41.15ZM 174.91 38.42C 175.37 38.42 175.74 38 175.74 37.48 175.74 36.95 175.37 36.53 174.91 36.53 174.46 36.53 174.09 36.95 174.09 37.48 174.09 38 174.46 38.42 174.91 38.42ZM 173.54 41.15C 173.99 41.15 174.36 40.72 174.36 40.2 174.36 39.68 173.99 39.26 173.54 39.26 173.08 39.26 172.71 39.68 172.71 40.2 172.71 40.72 173.08 41.15 173.54 41.15ZM 172.04 38.42C 172.5 38.42 172.87 38 172.87 37.48 172.87 36.95 172.5 36.53 172.04 36.53 171.59 36.53 171.22 36.95 171.22 37.48 171.22 38 171.59 38.42 172.04 38.42ZM 170.66 41.15C 171.12 41.15 171.49 40.72 171.49 40.2 171.49 39.68 171.12 39.26 170.66 39.26 170.21 39.26 169.84 39.68 169.84 40.2 169.84 40.72 170.21 41.15 170.66 41.15ZM 168.27 37.48C 168.27 38 168.63 38.42 169.09 38.42 169.54 38.42 169.91 38 169.91 37.48 169.91 36.95 169.54 36.53 169.09 36.53 168.63 36.53 168.27 36.95 168.27 37.48ZM 168.27 31.88C 168.27 32.4 168.63 32.82 169.09 32.82 169.54 32.82 169.91 32.4 169.91 31.88 169.91 31.36 169.54 30.93 169.09 30.93 168.63 30.93 168.27 31.36 168.27 31.88ZM 169.09 25.67C 168.63 25.67 168.27 26.09 168.27 26.61 168.27 27.13 168.63 27.55 169.09 27.55 169.54 27.55 169.91 27.13 169.91 26.61 169.91 26.09 169.54 25.67 169.09 25.67ZM 170.66 28.25C 170.21 28.25 169.84 28.67 169.84 29.2 169.84 29.72 170.21 30.14 170.66 30.14 171.12 30.14 171.49 29.72 171.49 29.2 171.49 28.67 171.12 28.25 170.66 28.25ZM 20.61 39.64C 20.35 39.93 20.04 40.08 19.66 40.08 19.27 40.08 18.94 39.95 18.68 39.69 18.42 39.44 18.29 39.11 18.29 38.73 18.29 38.34 18.42 38 18.68 37.7 18.94 37.4 19.26 37.25 19.63 37.25 20 37.25 20.32 37.38 20.59 37.64 20.86 37.9 21 38.22 21 38.61 21 39 20.87 39.34 20.61 39.64ZM 13.18 53.59C 15.05 56.01 15.99 58.57 15.99 61.25 15.99 61.64 15.86 61.97 15.6 62.24 15.35 62.51 15.04 62.64 14.67 62.64 14.31 62.64 14 62.51 13.74 62.24 13.48 61.97 13.36 61.64 13.36 61.25 13.36 58.64 12.36 56.27 10.36 54.15 8.36 52.04 6.13 50.98 3.66 50.98 3.66 50.98 3.66 61.25 3.66 61.25 3.66 61.64 3.53 61.97 3.28 62.24 3.02 62.51 2.71 62.64 2.35 62.64 1.98 62.64 1.67 62.51 1.41 62.24 1.16 61.97 1.03 61.64 1.03 61.25 1.03 61.25 1.03 39.46 1.03 39.46 1.03 39.07 1.16 38.74 1.41 38.47 1.67 38.2 1.98 38.07 2.35 38.07 2.71 38.07 3.02 38.2 3.28 38.47 3.53 38.74 3.66 39.07 3.66 39.46 3.66 39.46 3.66 48.18 3.66 48.18 3.66 48.18 13.76 38.1 13.76 38.1 14.02 37.85 14.33 37.72 14.69 37.72 15.05 37.72 15.36 37.85 15.61 38.13 15.86 38.4 15.99 38.72 15.99 39.09 15.99 39.51 15.87 39.85 15.65 40.11 15.65 40.11 6.83 48.75 6.83 48.75 9.31 49.65 11.43 51.27 13.18 53.59ZM 19.63 43.07C 19.99 43.07 20.31 43.22 20.58 43.51 20.86 43.81 21 44.15 21 44.54 21 44.54 21 61.44 21 61.44 21 61.83 20.85 62.15 20.57 62.41 20.28 62.67 19.95 62.8 19.59 62.8 19.23 62.8 18.92 62.65 18.67 62.35 18.42 62.06 18.29 61.71 18.29 61.33 18.29 61.33 18.29 44.42 18.29 44.42 18.29 44.06 18.42 43.75 18.69 43.47 18.95 43.2 19.27 43.07 19.63 43.07ZM 32.57 43.26C 35.14 43.26 37.34 44.23 39.17 46.17 41 48.11 41.92 50.43 41.92 53.15 41.92 53.15 41.96 61.21 41.96 61.21 41.96 61.6 41.82 61.94 41.54 62.24 41.26 62.53 40.95 62.68 40.58 62.68 40.22 62.68 39.91 62.55 39.65 62.3 39.38 62.04 39.25 61.71 39.25 61.33 39.25 61.33 39.25 53.15 39.25 53.15 39.25 51.21 38.6 49.55 37.31 48.16 36.02 46.78 34.46 46.09 32.63 46.09 30.78 46.09 29.2 46.78 27.91 48.16 26.62 49.55 25.97 51.21 25.97 53.15 25.97 53.15 25.97 61.17 25.97 61.17 25.97 61.58 25.83 61.94 25.56 62.24 25.28 62.53 24.96 62.68 24.6 62.68 24.24 62.68 23.93 62.55 23.66 62.28 23.4 62 23.27 61.67 23.27 61.29 23.27 61.29 23.27 53.11 23.27 53.11 23.27 50.39 24.17 48.07 25.98 46.15 27.79 44.22 29.98 43.26 32.57 43.26ZM 34.54 69.1C 34.54 69.1 32.78 69.1 32.78 69.1 32.78 69.1 32.78 74.55 32.78 74.55 32.78 74.55 31.64 74.55 31.64 74.55 31.64 74.55 31.64 69.1 31.64 69.1 31.64 69.1 29.89 69.1 29.89 69.1 29.89 69.1 29.89 68.06 29.89 68.06 29.89 68.06 34.54 68.06 34.54 68.06 34.54 68.06 34.54 69.1 34.54 69.1ZM 39.8 69.57C 39.8 70.31 39.42 70.84 38.66 71.16 39.47 71.32 39.88 71.81 39.88 72.63 39.88 73.91 39.24 74.55 37.96 74.55 37.96 74.55 35.18 74.55 35.18 74.55 35.18 74.55 35.18 68.06 35.18 68.06 35.18 68.06 38.05 68.06 38.05 68.06 39.22 68.06 39.8 68.56 39.8 69.57ZM 36.31 69.1C 36.31 69.1 36.31 73.51 36.31 73.51 36.31 73.51 37.91 73.51 37.91 73.51 38.42 73.51 38.67 73.24 38.67 72.69 38.67 72.02 38.29 71.68 37.54 71.68 37.54 71.68 37.2 71.68 37.2 71.68 37.2 71.68 37.2 70.9 37.2 70.9 38.14 70.74 38.61 70.32 38.61 69.65 38.61 69.28 38.4 69.1 37.98 69.1 37.98 69.1 36.31 69.1 36.31 69.1ZM 43.7 68.01C 45.72 68.01 46.73 69.11 46.73 71.31 46.73 73.5 45.72 74.6 43.7 74.6 41.74 74.6 40.72 73.5 40.63 71.31 40.63 69.11 41.65 68.01 43.7 68.01ZM 43.7 73.55C 44.94 73.55 45.56 72.8 45.56 71.29 45.56 69.8 44.94 69.06 43.7 69.06 42.44 69.06 41.81 69.8 41.81 71.29 41.81 72.8 42.44 73.55 43.7 73.55ZM 47.75 69.89C 47.75 68.67 48.42 68.06 49.76 68.06 49.76 68.06 52.41 68.06 52.41 68.06 52.41 68.06 52.41 74.55 52.41 74.55 52.41 74.55 51.26 74.55 51.26 74.55 51.26 74.55 51.26 69.12 51.26 69.12 51.26 69.12 49.74 69.12 49.74 69.12 49.21 69.12 48.94 69.37 48.94 69.88 48.94 70.55 49.49 70.98 50.61 71.17 50.61 71.17 50.61 71.72 50.61 71.72 50.61 71.72 48.74 74.55 48.74 74.55 48.74 74.55 47.27 74.55 47.27 74.55 47.27 74.55 49.21 71.75 49.21 71.75 48.24 71.29 47.75 70.67 47.75 69.89ZM 46.2 59.74C 44.37 57.8 43.46 55.46 43.46 52.72 43.46 49.98 44.37 47.64 46.2 45.7 48.03 43.77 50.23 42.8 52.82 42.8 55.31 42.8 57.5 43.86 59.4 45.97 59.4 45.97 59.44 36.63 59.44 36.63 59.44 36.24 59.57 35.9 59.84 35.6 60.11 35.31 60.43 35.16 60.79 35.16 61.16 35.16 61.47 35.29 61.74 35.55 62.01 35.81 62.14 36.13 62.14 36.52 62.14 36.52 62.14 52.72 62.14 52.72 62.14 55.46 61.23 57.8 59.4 59.74 57.57 61.68 55.38 62.64 52.82 62.64 50.23 62.64 48.03 61.68 46.2 59.74ZM 52.82 59.81C 54.65 59.81 56.21 59.13 57.5 57.75 58.79 56.38 59.44 54.71 59.44 52.74 59.44 50.8 58.79 49.14 57.5 47.76 56.21 46.39 54.65 45.7 52.82 45.7 50.96 45.7 49.39 46.39 48.1 47.76 46.81 49.14 46.16 50.8 46.16 52.74 46.16 54.71 46.81 56.38 48.1 57.75 49.39 59.13 50.96 59.81 52.82 59.81ZM 58.39 71.39C 58.39 71.39 58.39 68.06 58.39 68.06 58.39 68.06 62.76 68.06 62.76 68.06 62.76 68.06 62.76 74.55 62.76 74.55 62.76 74.55 61.62 74.55 61.62 74.55 61.62 74.55 61.62 69.1 61.62 69.1 61.62 69.1 59.52 69.1 59.52 69.1 59.52 69.1 59.52 71.39 59.52 71.39 59.52 73.5 58.65 74.55 56.91 74.55 56.91 74.55 56.91 73.6 56.91 73.6 57.9 73.6 58.39 72.86 58.39 71.39ZM 73.01 42.87C 74.88 42.87 76.61 43.43 78.18 44.54 79.75 45.65 80.91 47.14 81.64 49 82.03 50.01 82.24 50.81 82.26 51.4 82.26 51.4 82.26 54.35 82.26 54.35 82.26 54.35 66.53 54.35 66.53 54.35 66.87 55.93 67.65 57.22 68.86 58.23 70.06 59.23 71.45 59.74 73.01 59.74 73.01 59.74 74.18 59.74 74.18 59.74 74.18 59.74 75.35 59.74 75.35 59.74 76.27 59.79 76.74 60.28 76.74 61.21 76.74 62.09 76.3 62.57 75.42 62.64 74.93 62.67 74.13 62.68 73.01 62.68 70.42 62.68 68.22 61.71 66.39 59.78 64.56 57.84 63.64 55.5 63.64 52.76 63.64 50.04 64.56 47.72 66.39 45.78 68.22 43.84 70.42 42.87 73.01 42.87ZM 79.11 51.4C 78.8 49.75 78.11 48.39 77.07 47.33 75.94 46.25 74.6 45.7 73.04 45.7 71.46 45.7 70.05 46.24 68.82 47.31 67.59 48.38 66.81 49.75 66.5 51.4 66.5 51.4 79.11 51.4 79.11 51.4ZM 65.18 70.74C 65.18 70.74 66.23 70.74 66.23 70.74 66.38 68.92 67.28 68.01 68.91 68.01 70.67 68.01 71.56 69.11 71.56 71.31 71.56 73.5 70.67 74.6 68.91 74.6 67.25 74.6 66.35 73.66 66.22 71.78 66.22 71.78 65.18 71.78 65.18 71.78 65.18 71.78 65.18 74.55 65.18 74.55 65.18 74.55 64.05 74.55 64.05 74.55 64.05 74.55 64.05 68.06 64.05 68.06 64.05 68.06 65.18 68.06 65.18 68.06 65.18 68.06 65.18 70.74 65.18 70.74ZM 68.91 73.55C 69.89 73.55 70.38 72.8 70.38 71.29 70.38 69.8 69.89 69.06 68.91 69.06 67.9 69.06 67.4 69.8 67.4 71.29 67.4 72.8 67.9 73.55 68.91 73.55ZM 76.92 69.1C 76.92 69.1 73.77 69.1 73.77 69.1 73.77 69.1 73.77 73.5 73.77 73.5 73.77 73.5 75.17 73.5 75.17 73.5 75.76 73.5 76.06 73.24 76.06 72.73 76.06 72.16 75.69 71.87 74.94 71.87 74.94 71.87 74.47 71.87 74.47 71.87 74.47 71.87 74.47 70.83 74.47 70.83 74.47 70.83 74.98 70.83 74.98 70.83 76.46 70.83 77.2 71.45 77.2 72.68 77.2 73.93 76.54 74.55 75.24 74.55 75.24 74.55 72.63 74.55 72.63 74.55 72.63 74.55 72.63 68.06 72.63 68.06 72.63 68.06 76.92 68.06 76.92 68.06 76.92 68.06 76.92 69.1 76.92 69.1ZM 79.25 72.79C 79.25 72.79 82.15 68.06 82.15 68.06 82.15 68.06 83.24 68.06 83.24 68.06 83.24 68.06 83.24 74.55 83.24 74.55 83.24 74.55 82.15 74.55 82.15 74.55 82.15 74.55 82.15 69.88 82.15 69.88 82.15 69.88 79.25 74.55 79.25 74.55 79.25 74.55 78.16 74.55 78.16 74.55 78.16 74.55 78.16 68.06 78.16 68.06 78.16 68.06 79.25 68.06 79.25 68.06 79.25 68.06 79.25 72.79 79.25 72.79ZM 92.87 42.87C 92.87 42.87 95.24 42.87 95.24 42.87 95.61 42.87 95.93 43.01 96.21 43.29 96.49 43.57 96.63 43.91 96.63 44.29 96.63 44.7 96.51 45.03 96.25 45.3 95.99 45.57 95.68 45.7 95.31 45.7 95.31 45.7 94.06 45.7 94.06 45.7 94.06 45.7 92.89 45.7 92.89 45.7 91.03 45.7 89.45 46.39 88.16 47.78 86.86 49.16 86.21 50.82 86.21 52.76 86.21 52.76 86.21 61.17 86.21 61.17 86.21 61.56 86.07 61.89 85.8 62.16 85.52 62.43 85.2 62.57 84.84 62.57 83.95 62.57 83.5 62.11 83.5 61.21 83.5 61.21 83.5 52.76 83.5 52.76 83.5 50.04 84.42 47.72 86.25 45.78 88.08 43.84 90.28 42.87 92.87 42.87ZM 87.78 72.99C 87.78 72.99 89.82 68.06 89.82 68.06 89.82 68.06 90.95 68.06 90.95 68.06 90.95 68.06 90.95 74.55 90.95 74.55 90.95 74.55 89.9 74.55 89.9 74.55 89.9 74.55 89.9 70.03 89.9 70.03 89.9 70.03 88.24 74.55 88.24 74.55 88.24 74.55 87.27 74.55 87.27 74.55 87.27 74.55 85.57 70.03 85.57 70.03 85.57 70.03 85.57 74.55 85.57 74.55 85.57 74.55 84.52 74.55 84.52 74.55 84.52 74.55 84.52 68.06 84.52 68.06 84.52 68.06 85.7 68.06 85.7 68.06 85.7 68.06 87.78 72.99 87.78 72.99ZM 95.53 68.06C 95.53 68.06 98.18 74.55 98.18 74.55 98.18 74.55 96.96 74.55 96.96 74.55 96.96 74.55 96.26 72.78 96.26 72.78 96.26 72.78 94.23 72.78 94.23 72.78 94.23 72.78 94.62 71.74 94.62 71.74 94.62 71.74 95.85 71.74 95.85 71.74 95.85 71.74 94.89 69.3 94.89 69.3 94.89 69.3 92.87 74.55 92.87 74.55 92.87 74.55 91.7 74.55 91.7 74.55 91.7 74.55 94.31 68.06 94.31 68.06 94.31 68.06 95.53 68.06 95.53 68.06ZM 97.84 38.53C 97.84 37.81 98.21 37.36 98.94 37.17 99.18 37.12 99.83 37.1 100.88 37.1 103.7 37.1 106.11 37.87 108.08 39.42 110.25 41.13 111.34 43.43 111.34 46.32 111.34 49.17 110.16 51.45 107.8 53.19 105.71 54.68 103.27 55.43 100.47 55.43 100.47 55.43 100.47 61.21 100.47 61.21 100.47 61.6 100.35 61.93 100.09 62.2 99.83 62.47 99.52 62.61 99.16 62.61 98.79 62.61 98.48 62.48 98.22 62.22 97.97 61.96 97.84 61.64 97.84 61.25 97.84 61.25 97.84 38.53 97.84 38.53ZM 100.58 52.57C 102.84 52.57 104.66 52.14 106.04 51.29 107.77 50.2 108.63 48.53 108.63 46.29 108.63 44.01 107.77 42.32 106.04 41.21 104.66 40.33 102.8 39.89 100.47 39.89 100.47 39.89 100.58 52.57 100.58 52.57ZM 98.88 69.89C 98.88 68.67 99.55 68.06 100.88 68.06 100.88 68.06 103.54 68.06 103.54 68.06 103.54 68.06 103.54 74.55 103.54 74.55 103.54 74.55 102.38 74.55 102.38 74.55 102.38 74.55 102.38 69.12 102.38 69.12 102.38 69.12 100.87 69.12 100.87 69.12 100.34 69.12 100.07 69.37 100.07 69.88 100.07 70.55 100.62 70.98 101.74 71.17 101.74 71.17 101.74 71.72 101.74 71.72 101.74 71.72 99.87 74.55 99.87 74.55 99.87 74.55 98.4 74.55 98.4 74.55 98.4 74.55 100.34 71.75 100.34 71.75 99.37 71.29 98.88 70.67 98.88 69.89ZM 113.31 69.57C 113.31 70.31 112.93 70.84 112.17 71.16 112.98 71.32 113.38 71.81 113.38 72.63 113.38 73.91 112.74 74.55 111.47 74.55 111.47 74.55 108.69 74.55 108.69 74.55 108.69 74.55 108.69 68.06 108.69 68.06 108.69 68.06 111.56 68.06 111.56 68.06 112.72 68.06 113.31 68.56 113.31 69.57ZM 109.82 69.1C 109.82 69.1 109.82 73.51 109.82 73.51 109.82 73.51 111.42 73.51 111.42 73.51 111.92 73.51 112.17 73.24 112.17 72.69 112.17 72.02 111.8 71.68 111.05 71.68 111.05 71.68 110.7 71.68 110.7 71.68 110.7 71.68 110.7 70.9 110.7 70.9 111.65 70.74 112.12 70.32 112.12 69.65 112.12 69.28 111.91 69.1 111.48 69.1 111.48 69.1 109.82 69.1 109.82 69.1ZM 118.54 69.09C 118.54 69.09 115.47 69.09 115.47 69.09 115.47 69.09 115.47 70.73 115.47 70.73 115.47 70.73 118.4 70.73 118.4 70.73 118.4 70.73 118.4 71.81 118.4 71.81 118.4 71.81 115.46 71.81 115.46 71.81 115.46 71.81 115.46 73.51 115.46 73.51 115.46 73.51 118.6 73.51 118.6 73.51 118.6 73.51 118.6 74.55 118.6 74.55 118.6 74.55 114.35 74.55 114.35 74.55 114.35 74.55 114.35 68.06 114.35 68.06 114.35 68.06 118.54 68.06 118.54 68.06 118.54 68.06 118.54 69.09 118.54 69.09ZM 120.68 70.07C 120.68 70.93 121.05 71.36 121.79 71.36 122.45 71.36 123.02 71.15 123.52 70.75 123.52 70.75 123.52 68.06 123.52 68.06 123.52 68.06 124.66 68.06 124.66 68.06 124.66 68.06 124.66 74.55 124.66 74.55 124.66 74.55 123.52 74.55 123.52 74.55 123.52 74.55 123.52 71.9 123.52 71.9 122.96 72.25 122.35 72.42 121.69 72.42 120.26 72.42 119.55 71.63 119.55 70.05 119.55 70.05 119.55 68.06 119.55 68.06 119.55 68.06 120.68 68.06 120.68 68.06 120.68 68.06 120.68 70.07 120.68 70.07ZM 129.8 69.09C 129.8 69.09 126.73 69.09 126.73 69.09 126.73 69.09 126.73 70.73 126.73 70.73 126.73 70.73 129.65 70.73 129.65 70.73 129.65 70.73 129.65 71.81 129.65 71.81 129.65 71.81 126.72 71.81 126.72 71.81 126.72 71.81 126.72 73.51 126.72 73.51 126.72 73.51 129.86 73.51 129.86 73.51 129.86 73.51 129.86 74.55 129.86 74.55 129.86 74.55 125.6 74.55 125.6 74.55 125.6 74.55 125.6 68.06 125.6 68.06 125.6 68.06 129.8 68.06 129.8 68.06 129.8 68.06 129.8 69.09 129.8 69.09ZM 128.82 61.52C 128.79 61.39 128.78 60.72 128.78 59.5 126.93 61.62 124.71 62.68 122.13 62.68 119.54 62.68 117.33 61.71 115.51 59.78 113.68 57.84 112.76 55.5 112.76 52.76 112.76 50.04 113.68 47.72 115.51 45.78 117.33 43.84 119.54 42.87 122.13 42.87 124.69 42.87 126.88 43.84 128.71 45.78 130.54 47.72 131.45 50.04 131.45 52.76 131.45 52.76 131.45 61.33 131.45 61.33 131.45 61.74 131.31 62.07 131.03 62.31 130.75 62.56 130.43 62.68 130.06 62.68 129.38 62.68 128.97 62.3 128.82 61.52ZM 126.81 47.78C 125.51 46.39 123.95 45.7 122.13 45.7 120.27 45.7 118.7 46.39 117.41 47.78 116.12 49.16 115.47 50.82 115.47 52.76 115.47 54.7 116.12 56.35 117.41 57.72 118.7 59.09 120.27 59.78 122.13 59.78 123.95 59.78 125.51 59.09 126.81 57.72 128.1 56.35 128.75 54.7 128.75 52.76 128.75 50.82 128.1 49.16 126.81 47.78ZM 135.53 69.89C 135.53 71.21 134.67 72.01 132.96 72.29 132.96 72.29 132.8 71.22 132.8 71.22 133.83 71.02 134.34 70.59 134.34 69.92 134.34 69.39 134.09 69.12 133.58 69.12 133.58 69.12 132.04 69.12 132.04 69.12 132.04 69.12 132.04 74.55 132.04 74.55 132.04 74.55 130.91 74.55 130.91 74.55 130.91 74.55 130.91 68.06 130.91 68.06 130.91 68.06 133.65 68.06 133.65 68.06 134.9 68.06 135.53 68.67 135.53 69.89ZM 135.32 62.16C 135.04 62.43 134.72 62.57 134.36 62.57 133.47 62.57 133.02 62.11 133.02 61.21 133.02 61.21 133.02 52.76 133.02 52.76 133.02 50.04 133.94 47.72 135.77 45.78 137.6 43.84 139.8 42.87 142.39 42.87 142.39 42.87 144.77 42.87 144.77 42.87 145.13 42.87 145.45 43.01 145.73 43.29 146.01 43.57 146.15 43.91 146.15 44.29 146.15 44.7 146.03 45.03 145.77 45.3 145.51 45.57 145.2 45.7 144.83 45.7 144.83 45.7 143.59 45.7 143.59 45.7 143.59 45.7 142.41 45.7 142.41 45.7 140.55 45.7 138.97 46.39 137.68 47.78 136.38 49.16 135.73 50.82 135.73 52.76 135.73 52.76 135.73 61.17 135.73 61.17 135.73 61.56 135.59 61.89 135.32 62.16ZM 137.37 72.79C 137.37 72.79 140.27 68.06 140.27 68.06 140.27 68.06 141.36 68.06 141.36 68.06 141.36 68.06 141.36 74.55 141.36 74.55 141.36 74.55 140.27 74.55 140.27 74.55 140.27 74.55 140.27 69.88 140.27 69.88 140.27 69.88 137.37 74.55 137.37 74.55 137.37 74.55 136.28 74.55 136.28 74.55 136.28 74.55 136.28 68.06 136.28 68.06 136.28 68.06 137.37 68.06 137.37 68.06 137.37 68.06 137.37 72.79 137.37 72.79ZM 143.78 70.69C 143.78 70.69 146.93 70.69 146.93 70.69 146.93 70.69 146.93 68.06 146.93 68.06 146.93 68.06 148.07 68.06 148.07 68.06 148.07 68.06 148.07 74.55 148.07 74.55 148.07 74.55 146.93 74.55 146.93 74.55 146.93 74.55 146.93 71.74 146.93 71.74 146.93 71.74 143.78 71.74 143.78 71.74 143.78 71.74 143.78 74.55 143.78 74.55 143.78 74.55 142.64 74.55 142.64 74.55 142.64 74.55 142.64 68.06 142.64 68.06 142.64 68.06 143.78 68.06 143.78 68.06 143.78 68.06 143.78 70.69 143.78 70.69ZM 150.49 74.55C 150.49 74.55 149.35 74.55 149.35 74.55 149.35 74.55 149.35 68.06 149.35 68.06 149.35 68.06 150.49 68.06 150.49 68.06 150.49 68.06 150.49 74.55 150.49 74.55ZM 148.02 39.62C 148.02 39.26 148.15 38.94 148.42 38.67 148.68 38.4 148.99 38.26 149.35 38.26 149.72 38.26 150.03 38.41 150.29 38.71 150.56 39 150.7 39.35 150.73 39.73 150.73 39.73 150.73 43.14 150.73 43.14 150.73 43.14 159.79 43.14 159.79 43.14 160.62 43.14 161.04 43.62 161.04 44.58 161.04 44.99 160.9 45.34 160.62 45.63 160.34 45.91 160.01 46.05 159.65 46.05 159.65 46.05 150.73 46.05 150.73 46.05 150.73 46.05 150.73 52.93 150.73 52.93 150.73 54.87 151.39 56.51 152.71 57.86 154.03 59.22 155.61 59.88 157.44 59.85 157.44 59.85 158.62 59.85 158.62 59.85 158.62 59.85 159.79 59.85 159.79 59.85 160.16 59.85 160.48 60 160.76 60.3 161.05 60.6 161.19 60.94 161.19 61.33 161.19 62.23 160.75 62.71 159.87 62.76 158.75 62.81 157.93 62.84 157.42 62.84 154.83 62.84 152.62 61.91 150.78 60.04 148.94 58.18 148.02 55.89 148.02 53.17 148.02 53.17 148.02 39.62 148.02 39.62ZM 152.17 69.38C 152.53 68.5 153.1 68.06 153.9 68.06 153.9 68.06 154.35 68.06 154.35 68.06 154.35 68.06 154.35 69.01 154.35 69.01 154.35 69.01 154.02 69.01 154.02 69.01 153.71 69.01 153.42 69.33 153.16 69.97 152.91 70.61 152.55 70.99 152.08 71.11 152.31 71.18 152.54 71.34 152.78 71.59 153.03 71.84 153.62 72.83 154.55 74.55 154.55 74.55 153.12 74.55 153.12 74.55 152.35 73.01 151.87 72.13 151.67 71.91 151.48 71.7 151.27 71.59 151.04 71.59 151.04 71.59 151.04 70.71 151.04 70.71 151.45 70.71 151.82 70.27 152.17 69.38ZM 158.58 68.06C 158.58 68.06 161.24 74.55 161.24 74.55 161.24 74.55 160.02 74.55 160.02 74.55 160.02 74.55 159.32 72.78 159.32 72.78 159.32 72.78 157.29 72.78 157.29 72.78 157.29 72.78 157.68 71.74 157.68 71.74 157.68 71.74 158.91 71.74 158.91 71.74 158.91 71.74 157.95 69.3 157.95 69.3 157.95 69.3 155.93 74.55 155.93 74.55 155.93 74.55 154.76 74.55 154.76 74.55 154.76 74.55 157.36 68.06 157.36 68.06 157.36 68.06 158.58 68.06 158.58 68.06Z" fill="rgb(255,255,255)" filter="url(#filter0)"/></svg>